<?xml version="1.0" encoding="UTF-8"?>
<svg id="katman_2" data-name="katman 2" xmlns="http://www.w3.org/2000/svg" viewBox="0 0 485.67 455.73">
  <defs>
    <style>
      .cls-1, .cls-2 {
        stroke-width: 0px;
      }

      .cls-2 {
        fill: #efc862;
      }
    </style>
  </defs>
  <g id="graphics">
    <g>
      <path class="cls-1" d="m214.19,104.82v16.28c0,46.88-14.32,76.82-46.22,91.8,38.41,14.97,53.39,49.48,53.39,97.66v37.11c0,70.31-37.11,108.07-108.72,108.07H0V0h108.07c74.22,0,106.12,34.51,106.12,104.82Zm-142.58-39.71v120.44h28c26.69,0,42.97-11.72,42.97-48.18v-25.39c0-32.55-11.07-46.88-36.46-46.88h-34.5Zm0,185.55v139.98h41.02c24.09,0,37.11-11.07,37.11-44.92v-39.71c0-42.32-13.67-55.34-46.22-55.34h-31.9Z"/>
      <path class="cls-2" d="m478.51,104.82v16.28c0,46.88-14.32,76.82-46.22,91.8,38.41,14.97,53.39,49.48,53.39,97.66v37.11c0,70.31-37.11,108.07-108.72,108.07h-112.63V0h108.07c74.22,0,106.12,34.51,106.12,104.82Zm-142.58-39.71v120.44h28c26.69,0,42.97-11.72,42.97-48.18v-25.39c0-32.55-11.07-46.88-36.46-46.88h-34.5Zm0,185.55v139.98h41.02c24.09,0,37.11-11.07,37.11-44.92v-39.71c0-42.32-13.67-55.34-46.22-55.34h-31.9Z"/>
    </g>
  </g>
</svg>